<svg width="417" height="71" viewBox="0 0 417 71" fill="none" xmlns="http://www.w3.org/2000/svg">
<mask id="mask0_27_683" style="mask-type:luminance" maskUnits="userSpaceOnUse" x="0" y="5" width="106" height="49">
<path d="M0 5.5885H106V53.5885H0V5.5885Z" fill="white"/>
</mask>
<g mask="url(#mask0_27_683)">
<path d="M7.60425 44.5052C21.823 58.7708 44.1251 51.151 58.0522 40.3437C64.4897 35.5885 69.5313 29.2552 75.849 24.3541C83.849 18.0989 94.7397 10.6562 105.156 15C96.4063 0.109336 78.7813 8.04163 68.2084 16.3854C63.0261 20.1145 58.8178 24.9375 54.0157 29.0937C49.849 32.526 45.1355 35.2968 40.0886 37.2187C26.8699 42.552 12.1355 40.7604 4.698 27.4323C2.80737 23.8073 1.93237 19.6718 2.16675 15.5885C2.17195 15.5677 2.14591 15.5312 2.12508 15.526C2.10425 15.526 2.06258 15.5416 2.05216 15.5625C1.97925 15.7708 1.89591 15.9791 1.8282 16.1875C-1.74992 25.7604 0.0782057 37.3229 7.60425 44.5052Z" fill="#62A5B4"/>
</g>
<mask id="mask1_27_683" style="mask-type:luminance" maskUnits="userSpaceOnUse" x="2" y="14" width="109" height="53">
<path d="M2 14.9219H111V66.9219H2V14.9219Z" fill="white"/>
</mask>
<g mask="url(#mask1_27_683)">
<path d="M41.7656 65.2656C52.0365 62.4427 61.0208 56.3125 68.8906 49.2865C77.7604 41.5313 84.75 31.3542 95.7031 26.2604C99.7396 24.349 104.953 22.8333 108.865 25.7761C109.099 25.8802 109.969 26.7344 110.016 26.5052C109.479 24.1458 108.708 21.8021 107.385 19.7552C102.974 13.6354 94.0625 16.1875 88.2552 18.7136C77.8438 23.5208 70.0469 32.1511 62.0365 40.0729C53.2396 48.0781 42.2812 54.5365 30.1823 55.2656C19.0885 55.974 7.77083 50.5 2.09375 40.8646C5.90104 51.6771 14.4687 61.4323 25.3229 65.5156C30.6406 67.3021 36.4375 66.7188 41.7656 65.2656Z" fill="#F58617"/>
</g>
<mask id="mask2_27_683" style="mask-type:luminance" maskUnits="userSpaceOnUse" x="3" y="0" width="93" height="38">
<path d="M3.3335 0H95.3335V37.5885H3.3335V0Z" fill="white"/>
</mask>
<g mask="url(#mask2_27_683)">
<path d="M8.1667 28.5677C22.0677 45.4062 47 33.3073 59.8125 21.0052C68.7813 12.9167 81.3698 2.77082 94.1875 4.70311C94.3177 4.73436 94.4532 4.74999 94.5834 4.76561C94.7136 4.71874 94.5261 4.60415 94.4636 4.5729C79.3125 -5.09376 63.6094 1.7604 51.2084 13.9323C43.1198 21.875 28.0469 27.7239 17.2552 21.8125C10.4584 18.2812 7.09378 9.67186 9.84378 2.49478C9.94795 2.24999 10.1198 1.74478 9.71357 2.17186C2.95316 9.16665 1.92711 20.9167 8.1667 28.5677Z" fill="#478B99"/>
</g>
<mask id="mask3_27_683" style="mask-type:luminance" maskUnits="userSpaceOnUse" x="34" y="25" width="77" height="46">
<path d="M34 25.5885H111V70.9218H34V25.5885Z" fill="white"/>
</mask>
<g mask="url(#mask3_27_683)">
<path d="M110.734 32.8802C110.724 32.8802 110.719 32.8802 110.708 32.8802C110.719 32.0781 110.625 31.276 110.583 30.4687C110.521 29.6458 109.385 28.776 108.896 28.0989C102.464 22.2448 90.2083 31.401 85.1302 35.9375C79.0261 41.5104 73.9948 48.1666 67.4844 53.3281C58.2604 61.0677 47.2344 67.9166 34.9323 68.6354C34.8438 68.625 34.6094 68.6562 34.7448 68.776C37.3073 69.5781 39.9479 70.0989 42.625 70.3645C53.8281 71.4687 65.4688 68.5364 74.6615 61.9895C79.4792 58.2552 83.4636 53.5416 87.9167 49.3854C92.75 43.6145 99.4011 35.2187 107.297 34.1927C110.953 34.0364 110.781 37.0833 110.734 32.8802Z" fill="#3A3A3A"/>
</g>
<mask id="mask4_27_683" style="mask-type:luminance" maskUnits="userSpaceOnUse" x="91" y="34" width="20" height="15">
<path d="M91.3335 34.9219H111V48.2552H91.3335V34.9219Z" fill="white"/>
</mask>
<g mask="url(#mask4_27_683)">
<path d="M106.927 36.2396C100.969 37.3229 95.2451 43.3958 91.5264 47.9375C95.8962 44.0677 102.24 39.8594 108.224 42.6354C108.443 42.7135 108.792 43.026 108.891 42.6562C109.474 41.0781 110.037 39.4792 110.474 37.8542C110.042 36.7135 108.104 36.026 106.927 36.2396Z" fill="#0F0F0F"/>
</g>
<path d="M155.147 9.24597H121.913V17.9074H133.892V52.2512H143.168V17.9074H155.147V9.24597Z" fill="#F9F8F9"/>
<path d="M174.247 18.8918C169.945 18.8918 166.997 20.246 164.601 23.1939L163.007 19.0793H157.294V52.2512H166.263V35.048C166.263 29.6418 168.226 27.371 173.263 27.371H177.195V18.8918H174.247Z" fill="#F9F8F9"/>
<path d="M205.824 19.0793L204.902 22.2095C202.011 19.6939 198.267 18.1574 193.965 18.1574C184.011 18.1574 176.579 25.6522 176.579 35.6626C176.579 45.6782 184.011 53.2355 193.965 53.2355C198.204 53.2355 201.892 51.7616 204.715 49.2407L205.517 52.2512H212.517V19.0793H205.824ZM194.704 44.7564C189.48 44.7564 185.673 40.8241 185.673 35.6626C185.673 30.4439 189.48 26.5741 194.704 26.5741C199.923 26.5741 203.735 30.4439 203.735 35.6626C203.735 40.8866 199.923 44.7564 194.704 44.7564Z" fill="#F9F8F9"/>
<path d="M217.675 14.6522H226.581V6.36053H217.675V14.6522ZM217.675 52.2512H226.644V19.0793H217.675V52.2512Z" fill="#F9F8F9"/>
<path d="M231.741 52.2512H240.71V7.15741H231.741V52.2512Z" fill="#F9F8F9"/>
<path d="M272.281 29.5845C275.292 27.496 277.135 24.0533 277.135 20.3658C277.135 14.0376 271.609 9.30847 264.172 9.30847H246.422V52.3137H264.667C272.161 52.3137 278.245 46.7824 278.245 39.9022C278.245 35.2981 276.031 31.6106 272.281 29.5845ZM268.104 21.7824C268.104 24.4856 266.203 26.3866 263.312 26.3866H255.51V17.2356H263.312C266.203 17.2356 268.104 19.0793 268.104 21.7824ZM263.807 43.772H255.51V34.1262H263.807C266.875 34.1262 268.906 36.1574 268.906 38.9178C268.906 41.746 266.875 43.772 263.807 43.772Z" fill="#F9F8F9"/>
<path d="M281.741 52.2512H290.709V7.15741H281.741V52.2512Z" fill="#F9F8F9"/>
<path d="M322.838 19.0793L321.916 22.2095C319.026 19.6939 315.281 18.1574 310.979 18.1574C301.026 18.1574 293.593 25.6522 293.593 35.6626C293.593 45.6782 301.026 53.2355 310.979 53.2355C315.218 53.2355 318.906 51.7616 321.729 49.2407L322.531 52.2512H329.531V19.0793H322.838ZM311.718 44.7564C306.494 44.7564 302.687 40.8241 302.687 35.6626C302.687 30.4439 306.494 26.5741 311.718 26.5741C316.937 26.5741 320.75 30.4439 320.75 35.6626C320.75 40.8866 316.937 44.7564 311.718 44.7564Z" fill="#F9F8F9"/>
<path d="M345.069 44.0168L359.075 20.3085V19.0793H333.028V27.246H345.809L331.616 51.2668V52.2512H359.075V44.0168H345.069Z" fill="#F9F8F9"/>
<path d="M394.088 35.6053C394.088 26.0168 387.088 18.1574 376.89 18.1574C367.057 18.1574 359.687 25.7095 359.687 35.6626C359.687 45.6157 367.119 53.2355 376.89 53.2355C384.63 53.2355 390.958 48.6262 393.354 41.3762H383.953C382.604 43.772 380.02 45.246 376.89 45.246C372.526 45.246 369.578 42.7303 368.781 38.1835H393.906C394.031 37.3241 394.088 36.4647 394.088 35.6053ZM376.89 25.8345C380.942 25.8345 383.833 28.048 385.119 32.1001H369.026C370.067 28.1678 372.895 25.8345 376.89 25.8345Z" fill="#F9F8F9"/>
<path d="M413.927 18.8918C409.625 18.8918 406.677 20.246 404.281 23.1939L402.688 19.0793H396.974V52.2512H405.943V35.048C405.943 29.6418 407.906 27.371 412.943 27.371H416.875V18.8918H413.927Z" fill="#F9F8F9"/>
</svg>
