<svg width="417" height="72" viewBox="0 0 417 72" fill="none" xmlns="http://www.w3.org/2000/svg">
<mask id="mask0_27_685" style="mask-type:luminance" maskUnits="userSpaceOnUse" x="0" y="6" width="106" height="49">
<path d="M0 6.58853H106V54.5885H0V6.58853Z" fill="white"/>
</mask>
<g mask="url(#mask0_27_685)">
<path d="M7.60425 45.5052C21.823 59.7708 44.1251 52.151 58.0522 41.3437C64.4897 36.5885 69.5313 30.2552 75.849 25.3542C83.849 19.0989 94.7397 11.6562 105.156 16C96.4063 1.10937 78.7813 9.04166 68.2084 17.3854C63.0261 21.1146 58.8178 25.9375 54.0157 30.0937C49.849 33.526 45.1355 36.2969 40.0886 38.2187C26.8699 43.5521 12.1355 41.7604 4.698 28.4323C2.80737 24.8073 1.93237 20.6719 2.16675 16.5885C2.17195 16.5677 2.14591 16.5312 2.12508 16.526C2.10425 16.526 2.06258 16.5417 2.05216 16.5625C1.97925 16.7708 1.89591 16.9792 1.8282 17.1875C-1.74992 26.7604 0.0782057 38.3229 7.60425 45.5052Z" fill="#62A5B4"/>
</g>
<mask id="mask1_27_685" style="mask-type:luminance" maskUnits="userSpaceOnUse" x="2" y="15" width="109" height="53">
<path d="M2 15.9219H111V67.9219H2V15.9219Z" fill="white"/>
</mask>
<g mask="url(#mask1_27_685)">
<path d="M41.7656 66.2656C52.0365 63.4427 61.0208 57.3125 68.8906 50.2865C77.7604 42.5313 84.75 32.3542 95.7031 27.2604C99.7396 25.349 104.953 23.8333 108.865 26.7761C109.099 26.8802 109.969 27.7344 110.016 27.5052C109.479 25.1458 108.708 22.8021 107.385 20.7552C102.974 14.6354 94.0625 17.1875 88.2552 19.7136C77.8438 24.5208 70.0469 33.1511 62.0365 41.0729C53.2396 49.0781 42.2812 55.5365 30.1823 56.2656C19.0885 56.974 7.77083 51.5 2.09375 41.8646C5.90104 52.6771 14.4687 62.4323 25.3229 66.5156C30.6406 68.3021 36.4375 67.7188 41.7656 66.2656Z" fill="#F58617"/>
</g>
<mask id="mask2_27_685" style="mask-type:luminance" maskUnits="userSpaceOnUse" x="3" y="1" width="93" height="38">
<path d="M3.3335 1H95.3335V38.5885H3.3335V1Z" fill="white"/>
</mask>
<g mask="url(#mask2_27_685)">
<path d="M8.1667 29.5677C22.0677 46.4062 47 34.3073 59.8125 22.0052C68.7813 13.9167 81.3698 3.77082 94.1875 5.70311C94.3177 5.73436 94.4532 5.74999 94.5834 5.76561C94.7136 5.71874 94.5261 5.60415 94.4636 5.5729C79.3125 -4.09376 63.6094 2.7604 51.2084 14.9323C43.1198 22.875 28.0469 28.7239 17.2552 22.8125C10.4584 19.2812 7.09378 10.6719 9.84378 3.49478C9.94795 3.24999 10.1198 2.74478 9.71357 3.17186C2.95316 10.1667 1.92711 21.9167 8.1667 29.5677Z" fill="#478B99"/>
</g>
<mask id="mask3_27_685" style="mask-type:luminance" maskUnits="userSpaceOnUse" x="34" y="26" width="77" height="46">
<path d="M34 26.5885H111V71.9219H34V26.5885Z" fill="white"/>
</mask>
<g mask="url(#mask3_27_685)">
<path d="M110.734 33.8802C110.724 33.8802 110.719 33.8802 110.708 33.8802C110.719 33.0781 110.625 32.276 110.583 31.4687C110.521 30.6458 109.385 29.776 108.896 29.099C102.464 23.2448 90.2083 32.401 85.1302 36.9375C79.0261 42.5104 73.9948 49.1667 67.4844 54.3281C58.2604 62.0677 47.2344 68.9167 34.9323 69.6354C34.8438 69.625 34.6094 69.6562 34.7448 69.776C37.3073 70.5781 39.9479 71.099 42.625 71.3646C53.8281 72.4687 65.4688 69.5365 74.6615 62.9896C79.4792 59.2552 83.4636 54.5417 87.9167 50.3854C92.75 44.6146 99.4011 36.2187 107.297 35.1927C110.953 35.0365 110.781 38.0833 110.734 33.8802Z" fill="#3A3A3A"/>
</g>
<mask id="mask4_27_685" style="mask-type:luminance" maskUnits="userSpaceOnUse" x="91" y="35" width="20" height="15">
<path d="M91.3335 35.9219H111V49.2552H91.3335V35.9219Z" fill="white"/>
</mask>
<g mask="url(#mask4_27_685)">
<path d="M106.927 37.2396C100.969 38.3229 95.2451 44.3958 91.5264 48.9375C95.8962 45.0677 102.24 40.8594 108.224 43.6354C108.443 43.7135 108.792 44.026 108.891 43.6562C109.474 42.0781 110.037 40.4792 110.474 38.8542C110.042 37.7135 108.104 37.026 106.927 37.2396Z" fill="#0F0F0F"/>
</g>
<path d="M155.147 10.246H121.913V18.9074H133.892V53.2512H143.168V18.9074H155.147V10.246Z" fill="#242424"/>
<path d="M174.247 19.8918C169.945 19.8918 166.997 21.246 164.601 24.1939L163.007 20.0793H157.294V53.2512H166.263V36.048C166.263 30.6418 168.226 28.371 173.263 28.371H177.195V19.8918H174.247Z" fill="#242424"/>
<path d="M205.824 20.0793L204.902 23.2095C202.011 20.6939 198.267 19.1574 193.965 19.1574C184.011 19.1574 176.579 26.6522 176.579 36.6626C176.579 46.6782 184.011 54.2355 193.965 54.2355C198.204 54.2355 201.892 52.7616 204.715 50.2407L205.517 53.2512H212.517V20.0793H205.824ZM194.704 45.7564C189.48 45.7564 185.673 41.8241 185.673 36.6626C185.673 31.4439 189.48 27.5741 194.704 27.5741C199.923 27.5741 203.735 31.4439 203.735 36.6626C203.735 41.8866 199.923 45.7564 194.704 45.7564Z" fill="#242424"/>
<path d="M217.675 15.6522H226.581V7.36053H217.675V15.6522ZM217.675 53.2512H226.644V20.0793H217.675V53.2512Z" fill="#242424"/>
<path d="M231.741 53.2512H240.71V8.15741H231.741V53.2512Z" fill="#242424"/>
<path d="M272.281 30.5845C275.292 28.496 277.135 25.0533 277.135 21.3658C277.135 15.0376 271.609 10.3085 264.172 10.3085H246.422V53.3137H264.667C272.161 53.3137 278.245 47.7824 278.245 40.9022C278.245 36.2981 276.031 32.6106 272.281 30.5845ZM268.104 22.7824C268.104 25.4856 266.203 27.3866 263.312 27.3866H255.51V18.2356H263.312C266.203 18.2356 268.104 20.0793 268.104 22.7824ZM263.807 44.772H255.51V35.1262H263.807C266.875 35.1262 268.906 37.1574 268.906 39.9178C268.906 42.746 266.875 44.772 263.807 44.772Z" fill="#242424"/>
<path d="M281.741 53.2512H290.709V8.15741H281.741V53.2512Z" fill="#242424"/>
<path d="M322.838 20.0793L321.916 23.2095C319.026 20.6939 315.281 19.1574 310.979 19.1574C301.026 19.1574 293.593 26.6522 293.593 36.6626C293.593 46.6782 301.026 54.2355 310.979 54.2355C315.218 54.2355 318.906 52.7616 321.729 50.2407L322.531 53.2512H329.531V20.0793H322.838ZM311.718 45.7564C306.494 45.7564 302.687 41.8241 302.687 36.6626C302.687 31.4439 306.494 27.5741 311.718 27.5741C316.937 27.5741 320.75 31.4439 320.75 36.6626C320.75 41.8866 316.937 45.7564 311.718 45.7564Z" fill="#242424"/>
<path d="M345.069 45.0168L359.075 21.3085V20.0793H333.028V28.246H345.809L331.616 52.2668V53.2512H359.075V45.0168H345.069Z" fill="#242424"/>
<path d="M394.088 36.6053C394.088 27.0168 387.088 19.1574 376.89 19.1574C367.057 19.1574 359.687 26.7095 359.687 36.6626C359.687 46.6157 367.119 54.2355 376.89 54.2355C384.63 54.2355 390.958 49.6262 393.354 42.3762H383.953C382.604 44.772 380.02 46.246 376.89 46.246C372.526 46.246 369.578 43.7303 368.781 39.1835H393.906C394.031 38.3241 394.088 37.4647 394.088 36.6053ZM376.89 26.8345C380.942 26.8345 383.833 29.048 385.119 33.1001H369.026C370.067 29.1678 372.895 26.8345 376.89 26.8345Z" fill="#242424"/>
<path d="M413.927 19.8918C409.625 19.8918 406.677 21.246 404.281 24.1939L402.688 20.0793H396.974V53.2512H405.943V36.048C405.943 30.6418 407.906 28.371 412.943 28.371H416.875V19.8918H413.927Z" fill="#242424"/>
</svg>
